<?xml version="1.0" standalone="no"?>
<!DOCTYPE svg PUBLIC "-//W3C//DTD SVG 20010904//EN"
 "http://www.w3.org/TR/2001/REC-SVG-20010904/DTD/svg10.dtd">
<svg version="1.0" xmlns="http://www.w3.org/2000/svg"
 width="512.000000pt" height="512.000000pt" viewBox="0 0 512.000000 512.000000"
 preserveAspectRatio="xMidYMid meet">
<metadata>
Created by potrace 1.11, written by Peter Selinger 2001-2013
</metadata>
<g transform="translate(0.000000,512.000000) scale(0.100000,-0.100000)"
fill="#000000" stroke="none">
<path d="M2407 4874 c-1 -1 -31 -5 -67 -8 -85 -7 -193 -23 -265 -40 -222 -51
-380 -107 -560 -199 -157 -79 -323 -189 -455 -302 -70 -59 -257 -252 -314
-324 -99 -124 -184 -259 -261 -416 -139 -282 -207 -523 -233 -830 -8 -103 -8
-307 1 -410 8 -88 8 -88 34 -230 9 -55 18 -104 18 -110 0 -5 3 -12 7 -15 4 -4
9 -23 10 -43 2 -20 6 -37 10 -37 6 0 33 -102 29 -109 -2 -2 1 -7 6 -10 15 -10
54 -122 46 -133 -3 -7 -1 -8 5 -4 7 4 12 2 12 -5 0 -6 16 -43 35 -81 20 -38
32 -74 29 -81 -4 -7 -4 -9 1 -5 4 4 19 -14 33 -40 13 -26 47 -80 73 -120 27
-41 46 -79 42 -85 -3 -7 -3 -9 2 -5 11 10 56 -52 48 -65 -3 -6 -1 -7 5 -3 6 4
19 -6 29 -21 9 -15 28 -39 40 -52 13 -13 23 -30 23 -38 0 -8 5 -11 12 -7 8 5
9 2 4 -12 -4 -10 -4 -15 0 -11 11 10 35 -13 27 -27 -3 -6 -3 -8 2 -4 11 10 37
-11 29 -23 -3 -5 -1 -8 4 -7 11 4 102 -87 102 -102 0 -5 6 -9 12 -7 7 1 12 -4
10 -11 -1 -8 2 -11 7 -8 5 4 27 -10 48 -30 21 -20 48 -43 61 -52 15 -9 21 -21
17 -31 -5 -12 -3 -13 5 -4 9 8 17 7 31 -5 10 -8 16 -19 14 -22 -2 -4 1 -7 8
-7 16 0 152 -93 152 -103 0 -5 4 -12 9 -17 5 -5 6 -3 2 5 -9 16 -4 15 38 -5
19 -9 33 -20 30 -25 -3 -4 4 -8 15 -8 10 0 21 -5 23 -11 2 -5 10 -12 18 -13
31 -7 80 -31 80 -39 0 -4 5 -5 10 -2 6 3 10 1 10 -4 0 -6 9 -11 20 -11 11 0
20 -5 20 -11 0 -5 5 -7 10 -4 6 3 10 1 10 -5 0 -6 5 -8 10 -5 6 3 10 1 10 -5
0 -6 4 -9 9 -6 15 10 41 -5 41 -23 0 -14 2 -14 10 -1 8 13 11 12 25 -5 9 -11
14 -15 11 -8 -5 9 1 9 24 0 18 -7 28 -17 26 -24 -3 -7 -1 -13 4 -13 6 0 10 7
10 16 0 8 5 12 10 9 6 -4 7 -12 3 -18 -5 -9 -3 -9 8 -1 10 8 21 8 42 0 15 -7
25 -15 22 -18 -3 -3 6 -3 21 0 20 4 25 2 19 -8 -5 -9 -2 -10 13 -6 12 4 23 2
28 -5 4 -7 3 -9 -2 -6 -6 3 -16 1 -24 -4 -11 -7 -9 -8 9 -6 14 2 27 9 29 16 3
9 9 7 23 -5 10 -9 16 -21 12 -27 -3 -6 -1 -7 6 -3 6 4 9 12 5 17 -10 16 68 -1
90 -20 11 -9 17 -11 13 -6 -3 6 3 12 14 12 10 1 19 -3 19 -8 0 -6 -4 -7 -10
-4 -6 4 -7 -1 -3 -11 4 -12 3 -15 -5 -10 -17 10 -15 1 4 -14 8 -8 14 -9 13 -4
-4 22 2 35 13 28 7 -4 8 -3 4 4 -4 7 -1 12 8 12 20 0 20 -10 0 -39 -16 -22
-16 -22 4 -10 11 7 19 16 16 20 -2 4 4 13 13 20 15 12 16 12 9 -6 -6 -16 -5
-18 5 -7 14 13 55 16 62 4 3 -4 30 -7 61 -6 52 1 56 -1 50 -19 -4 -13 -2 -17
5 -13 6 4 11 13 11 20 0 10 26 13 82 7 4 -1 5 -9 2 -18 -3 -10 1 -7 9 6 9 16
16 19 19 11 3 -10 9 -10 24 -2 16 8 24 8 34 -1 10 -9 14 -9 18 2 3 10 9 7 19
-10 8 -13 12 -16 9 -7 -6 20 5 24 64 23 42 0 66 -15 39 -24 -6 -2 -9 1 -6 6 3
5 -7 9 -23 9 -16 0 -27 -3 -24 -8 8 -12 -10 -9 -26 5 -12 10 -12 9 -1 -5 11
-15 11 -18 1 -18 -8 0 -10 -3 -7 -6 4 -4 18 1 32 10 22 14 28 15 45 3 11 -8
19 -16 17 -18 -1 -2 0 -3 2 -2 2 2 10 -2 18 -9 11 -8 12 -7 7 6 -3 9 -11 16
-16 16 -7 0 -6 5 1 13 6 8 7 18 3 22 -4 5 1 5 11 2 10 -4 17 -1 17 6 0 8 4 6
10 -3 5 -8 10 -10 10 -5 0 6 11 11 25 11 13 1 24 -1 23 -5 -2 -18 4 -30 19
-35 15 -6 15 -5 -1 13 -17 19 -17 20 1 29 10 5 28 8 41 6 13 -2 21 0 18 4 -2
4 5 8 17 9 12 1 36 3 54 6 22 4 33 1 37 -9 6 -17 1 -18 -24 -4 -15 8 -18 7
-14 -3 3 -8 13 -14 22 -14 20 0 54 26 47 38 -5 7 9 11 70 23 11 2 32 9 47 15
20 7 29 7 34 -1 4 -7 3 -8 -4 -4 -7 4 -12 2 -12 -4 0 -6 -4 -8 -10 -5 -5 3
-18 1 -27 -5 -17 -11 -17 -11 1 -6 10 4 26 1 34 -6 10 -8 13 -9 9 -2 -4 7 0
15 9 18 9 3 14 12 11 19 -3 8 0 14 6 15 38 5 56 11 92 26 22 10 47 19 55 21 8
2 16 4 18 5 1 2 5 3 10 4 4 1 18 8 31 15 14 8 21 9 17 2 -4 -6 -3 -11 3 -11 6
0 8 -8 5 -17 -5 -14 -4 -15 4 -4 5 7 7 21 5 31 -4 15 -1 18 16 13 12 -3 21
-10 21 -17 0 -6 5 -3 11 7 11 18 39 24 39 7 0 -5 -5 -9 -12 -7 -13 2 -20 -61
-7 -68 4 -3 5 11 3 30 -2 21 1 33 7 30 5 -4 12 1 15 9 3 9 11 13 17 9 6 -3 7
-1 3 6 -4 6 -1 14 7 17 7 2 14 12 14 21 0 11 -5 9 -18 -9 -13 -18 -26 -24 -48
-22 -17 1 -28 -2 -25 -7 3 -5 -2 -6 -11 -3 -17 7 -15 14 7 18 7 1 24 8 37 15
19 11 22 11 16 -1 -3 -7 -1 -6 7 3 7 9 27 23 45 32 31 16 32 16 47 -5 9 -12
16 -17 16 -11 0 7 -4 14 -10 18 -20 13 16 48 55 54 15 2 12 -32 -3 -37 -6 -2
-10 2 -9 10 2 7 2 10 0 6 -3 -5 -11 -8 -19 -8 -17 0 -17 -8 1 -40 9 -16 14
-19 15 -10 0 9 -5 21 -12 28 -15 15 -3 15 24 1 15 -8 19 -8 14 0 -4 6 -2 11 4
11 7 0 10 6 7 14 -3 7 0 19 6 26 9 10 9 11 -1 6 -6 -4 -12 -2 -12 4 0 7 6 10
13 7 6 -2 11 -14 10 -26 -2 -18 -1 -20 11 -9 8 7 11 17 8 22 -3 5 2 7 11 3 11
-4 14 -2 10 9 -7 19 17 15 34 -6 8 -10 12 -11 13 -3 0 6 -5 15 -11 18 -7 5 -4
14 8 28 10 11 13 17 6 14 -6 -4 -15 -2 -19 4 -4 7 -3 9 3 6 6 -4 14 0 17 9 3
8 10 13 15 9 6 -3 15 4 21 15 6 11 15 18 21 15 5 -4 12 1 15 9 3 9 10 13 15
10 5 -3 9 0 9 5 0 6 5 11 11 11 5 0 8 -3 6 -7 -3 -5 6 -9 19 -9 16 -1 24 4 24
15 0 13 4 11 18 -6 13 -17 20 -20 32 -12 13 9 13 10 -2 6 -9 -4 -19 1 -22 10
-5 11 -2 14 9 9 9 -3 13 -2 10 4 -3 6 -2 10 4 10 5 0 11 -3 14 -7 2 -5 2 -3 1
4 -4 17 22 37 31 23 3 -5 12 -10 18 -10 7 0 4 5 -6 11 -12 7 -16 17 -12 30 4
11 2 19 -5 19 -6 0 -8 -5 -4 -12 4 -7 3 -8 -4 -4 -8 4 -10 2 -6 -7 6 -18 -12
-32 -21 -17 -3 5 -1 10 6 10 7 0 10 3 6 6 -3 3 -11 3 -17 -1 -8 -5 -8 -11 1
-21 9 -11 8 -14 -2 -16 -30 -3 -35 -4 -57 -17 -13 -7 -26 -10 -29 -7 -7 7 46
51 62 51 5 1 9 6 8 13 -2 7 0 11 5 11 19 -3 33 2 28 10 -6 10 49 61 65 61 6 0
7 6 3 13 -5 8 -2 8 9 -2 19 -15 23 -26 5 -15 -7 4 -8 3 -4 -4 4 -7 2 -10 -6
-9 -7 2 -10 2 -5 0 12 -8 8 -20 -8 -20 -8 0 -12 4 -9 9 3 4 1 8 -4 8 -6 0 -9
-16 -8 -35 3 -37 38 -75 51 -55 4 6 3 10 -2 9 -4 -1 -16 1 -26 6 -14 6 -15 10
-6 21 10 12 14 11 26 -3 13 -16 13 -16 4 4 -12 23 -5 56 10 48 4 -3 6 -13 3
-23 -5 -14 -4 -14 4 -2 8 10 8 18 0 27 -14 17 4 17 21 0 10 -10 11 -8 5 7 -6
15 -4 17 7 11 8 -4 11 -5 7 -1 -8 10 14 36 25 29 4 -3 2 -12 -5 -21 -12 -15
-11 -16 5 -3 15 12 16 16 4 30 -17 19 -19 53 -3 48 6 -2 10 -11 8 -21 -2 -9 1
-16 7 -16 5 0 8 8 7 17 -2 9 6 27 17 40 22 25 38 23 17 -2 -15 -18 -4 -20 14
-2 11 11 11 16 0 31 -13 19 -39 13 -28 -6 5 -7 2 -8 -6 -3 -9 6 -11 4 -5 -5 6
-9 4 -11 -5 -5 -9 6 -11 4 -5 -5 6 -9 4 -11 -5 -5 -9 6 -11 4 -5 -5 5 -8 4
-11 -3 -7 -13 9 -8 43 7 40 6 -2 11 5 11 14 0 9 3 13 6 10 10 -10 44 12 44 27
0 8 7 16 15 20 8 3 15 11 14 18 0 10 -2 10 -6 1 -2 -7 -9 -13 -15 -13 -7 0 -6
5 2 14 6 8 18 12 26 9 8 -3 12 -8 10 -11 -3 -3 0 -12 6 -19 9 -12 9 -14 -3
-13 -37 6 -57 -22 -38 -51 5 -8 9 -10 9 -5 0 5 8 2 18 -5 15 -12 16 -12 6 1
-15 21 -12 37 11 55 14 11 16 18 8 21 -10 4 -9 9 2 20 8 8 12 21 9 29 -9 23
-23 18 -19 -6 4 -18 2 -19 -11 -8 -14 12 -14 15 5 30 11 9 17 20 13 23 -3 4 2
4 12 0 12 -5 17 -2 14 8 -4 21 45 89 60 83 7 -3 10 0 7 5 -6 9 23 70 49 103
12 15 18 17 33 7 15 -10 15 -11 1 -6 -13 4 -15 1 -11 -11 5 -13 2 -15 -13 -9
-15 6 -16 5 -7 -5 10 -10 17 -9 33 6 11 10 17 22 13 28 -4 6 0 8 11 4 10 -4
15 -3 11 4 -4 5 -15 7 -25 4 -10 -3 -21 -2 -23 2 -7 11 38 85 46 76 4 -3 -1
-15 -10 -25 -10 -11 -13 -19 -8 -18 22 5 29 -1 15 -11 -12 -8 -12 -9 5 -7 11
2 20 -2 20 -9 0 -23 11 -22 11 2 0 13 -4 21 -10 18 -5 -4 -7 1 -3 10 4 12 2
14 -11 10 -14 -6 -15 -4 -5 8 7 8 8 20 4 28 -11 17 -2 53 11 45 5 -4 5 -10 0
-17 -6 -8 -3 -22 8 -40 15 -25 18 -26 24 -10 4 9 4 14 0 10 -8 -8 -34 25 -28
35 3 5 10 8 15 8 6 0 8 -4 4 -9 -3 -5 -1 -12 4 -15 13 -8 41 4 41 17 0 7 -4 7
-12 -1 -13 -13 -29 -16 -27 -5 3 20 -2 34 -10 29 -14 -9 -18 16 -7 41 17 36
63 43 50 8 -4 -8 -10 -12 -15 -9 -5 3 -6 10 -3 16 4 7 2 8 -5 4 -6 -4 -9 -11
-6 -16 3 -4 1 -10 -4 -12 -5 -1 -3 -12 6 -23 15 -19 15 -19 8 4 -5 15 -4 21 3
17 17 -10 34 28 19 43 -9 10 -6 11 18 6 29 -5 30 -5 5 6 -23 11 -24 12 -5 16
11 3 23 8 27 12 12 10 -7 32 -30 34 -11 0 -18 5 -15 10 3 4 12 6 20 2 13 -4
14 -3 4 9 -10 12 -9 24 7 58 22 47 67 189 64 201 -1 4 2 7 7 7 5 0 9 6 8 12
-1 41 4 62 12 50 6 -10 10 -9 14 7 3 13 1 19 -5 15 -6 -4 -9 -1 -6 6 7 21 28
24 28 3 0 -15 2 -16 10 -3 10 16 -13 36 -30 25 -6 -3 -10 -2 -10 3 0 16 26 22
39 9 8 -8 15 -7 27 4 13 14 13 16 0 16 -8 0 -13 -4 -10 -9 6 -10 -10 -11 -19
-1 -4 3 -2 12 4 20 6 7 8 13 4 13 -4 0 -14 -8 -21 -17 -7 -10 -14 -13 -14 -7
0 5 7 19 15 30 15 19 15 19 30 0 8 -11 15 -15 15 -9 0 17 -28 35 -41 27 -9 -5
-10 -2 -6 10 4 10 7 29 7 42 0 13 4 24 9 24 5 0 8 -13 6 -30 -2 -18 1 -30 7
-30 6 0 8 3 5 6 -4 4 1 20 10 35 14 23 19 26 32 16 14 -11 14 -10 2 6 -13 16
-16 17 -26 4 -8 -12 -14 -12 -27 -3 -10 7 -13 17 -9 24 4 7 7 31 7 52 -1 29 3
39 12 35 6 -3 18 -8 26 -11 7 -3 16 2 20 12 5 13 4 14 -7 6 -19 -16 -42 3 -43
37 0 27 2 29 33 26 18 -1 36 1 38 6 3 4 -9 6 -26 4 l-31 -4 17 27 16 27 -20
-22 c-10 -13 -22 -23 -25 -23 -12 0 -1 25 18 41 19 16 19 16 -2 46 -13 19 -18
34 -12 43 5 8 7 17 4 21 -2 4 0 10 6 14 12 8 13 42 1 49 -4 3 -6 -6 -3 -21 3
-15 1 -24 -5 -20 -11 7 -11 36 0 54 4 6 4 13 0 16 -5 2 -2 2 5 1 7 -2 15 3 18
11 4 8 11 12 18 8 6 -3 8 -3 4 2 -4 4 -3 14 4 22 8 11 7 12 -6 7 -9 -3 -16
-10 -16 -15 0 -5 -8 -4 -19 2 -19 12 -23 53 -7 77 5 8 2 20 -7 30 -8 10 -14
31 -12 49 1 18 0 31 -4 29 -3 -2 -7 10 -8 27 -3 58 -11 105 -18 116 -3 7 -8
24 -11 39 -5 33 -12 67 -14 67 -9 0 -6 41 3 47 8 5 6 8 -7 8 -11 0 -16 5 -13
14 3 7 1 18 -3 22 -5 5 -11 18 -13 29 -1 11 -6 26 -10 33 -5 7 -3 12 4 12 7 0
5 6 -5 13 -11 8 -19 27 -20 44 0 17 -4 29 -7 27 -11 -6 -19 24 -12 43 4 10 2
14 -4 10 -7 -4 -16 8 -24 30 -7 21 -20 52 -29 68 -28 52 -32 68 -15 61 9 -3
13 -2 10 4 -3 6 -12 10 -20 10 -8 0 -17 4 -20 10 -3 5 0 7 8 4 8 -3 18 -1 22
5 3 6 0 9 -7 6 -7 -3 -17 -1 -23 3 -15 11 -47 72 -38 72 4 0 3 4 -2 8 -6 4
-21 21 -33 38 -16 24 -18 34 -9 43 9 10 8 11 -7 5 -16 -6 -18 -4 -13 10 4 9 3
15 -1 13 -4 -3 -16 7 -26 21 -12 16 -14 22 -5 17 8 -4 2 4 -13 17 -21 19 -25
27 -16 36 9 9 9 15 -1 25 -10 10 -11 9 -6 -5 11 -29 -8 -21 -30 12 -11 16 -23
30 -27 30 -5 0 -8 5 -8 11 0 5 6 7 13 3 7 -4 9 -3 4 2 -5 5 -13 9 -18 9 -5 0
-10 5 -10 10 -1 6 -10 16 -21 23 -10 7 -16 18 -12 23 3 5 2 8 -3 7 -4 -2 -8 0
-8 4 0 3 -12 16 -28 28 -15 12 -24 27 -20 33 3 7 3 9 -1 5 -11 -9 -50 28 -42
40 3 5 -2 9 -12 8 -10 0 -16 6 -16 16 1 10 -2 16 -6 13 -10 -6 -96 73 -92 85
1 6 -1 9 -5 8 -17 -3 -43 15 -43 30 0 8 -3 12 -6 9 -4 -4 -15 3 -25 15 -11 11
-19 18 -19 14 0 -4 -6 -2 -12 4 -30 24 -98 77 -123 95 -16 11 -33 25 -39 30
-6 6 -17 11 -25 13 -7 1 -20 9 -28 17 -8 8 -19 15 -24 15 -11 0 -91 51 -100
63 -3 5 -8 7 -11 5 -2 -1 -33 11 -69 29 -35 17 -84 40 -109 51 -25 11 -61 27
-82 36 -20 9 -42 16 -50 16 -7 0 -25 8 -38 17 -14 10 -27 17 -30 15 -10 -5
-110 21 -110 29 0 5 -6 6 -14 3 -8 -3 -17 0 -21 5 -3 6 -11 9 -16 5 -5 -3 -24
-1 -42 5 -17 5 -49 12 -71 16 -21 3 -41 7 -45 9 -3 2 -35 7 -71 10 -36 3 -76
8 -90 12 -24 5 -388 13 -393 8z m2473 -2094 c0 -5 -2 -10 -4 -10 -3 0 -8 5
-11 10 -3 6 -1 10 4 10 6 0 11 -4 11 -10z m20 -110 c0 -5 -7 -7 -15 -4 -8 4
-12 10 -9 15 6 11 24 2 24 -11z m-2 -202 c-7 -19 -21 -12 -23 9 -1 18 1 20 12
11 8 -6 12 -15 11 -20z m-158 -844 c0 -4 -11 -3 -25 0 -14 4 -25 3 -24 -1 3
-19 -2 -33 -12 -33 -8 0 -9 4 0 13 6 8 8 17 4 21 -13 13 20 25 39 15 10 -5 18
-12 18 -15z m-493 -674 c-1 -11 -6 -20 -11 -20 -6 0 -5 -5 2 -12 9 -9 8 -16
-5 -30 -19 -21 -39 -23 -46 -5 -6 15 17 50 26 41 3 -4 12 5 18 20 15 31 18 33
16 6z m-87 -130 c0 -5 -5 -10 -11 -10 -5 0 -7 5 -4 10 3 6 8 10 11 10 2 0 4
-4 4 -10z m-310 -215 c-7 -9 -15 -13 -18 -10 -3 3 -14 -3 -25 -12 -19 -17 -19
-17 -16 2 3 11 9 20 16 20 6 0 15 3 19 8 4 4 14 7 22 7 12 0 12 -3 2 -15z
m-775 -314 c3 -5 1 -12 -5 -16 -5 -3 -10 1 -10 9 0 18 6 21 15 7z"/>
<path d="M4204 905 c-18 -15 -18 -15 0 -8 15 5 17 3 11 -8 -8 -12 -6 -12 8 0
9 7 14 17 11 22 -7 12 -7 12 -30 -6z"/>
<path d="M4490 3903 c0 -6 8 -17 18 -24 16 -13 16 -13 2 6 -8 11 -16 22 -17
24 -2 2 -3 0 -3 -6z"/>
<path d="M4515 3840 c3 -5 8 -10 11 -10 2 0 4 5 4 10 0 6 -5 10 -11 10 -5 0
-7 -4 -4 -10z"/>
<path d="M4556 3757 c3 -10 9 -15 12 -12 3 3 0 11 -7 18 -10 9 -11 8 -5 -6z"/>
<path d="M4596 3701 c-3 -5 1 -14 8 -20 10 -9 16 -9 21 -1 4 6 1 9 -7 8 -7 -2
-12 3 -10 10 2 14 -4 16 -12 3z"/>
<path d="M4650 3681 c0 -6 4 -13 10 -16 6 -3 7 1 4 9 -7 18 -14 21 -14 7z"/>
<path d="M4676 3607 c3 -10 9 -15 12 -12 3 3 0 11 -7 18 -10 9 -11 8 -5 -6z"/>
<path d="M4690 3518 c0 -4 4 -8 9 -8 6 0 12 4 15 8 3 5 -1 9 -9 9 -8 0 -15 -4
-15 -9z"/>
<path d="M4717 3473 c-10 -9 -9 -23 1 -23 5 0 9 7 9 15 0 17 -1 18 -10 8z"/>
<path d="M4749 3443 c-13 -16 -12 -17 4 -4 9 7 17 15 17 17 0 8 -8 3 -21 -13z"/>
<path d="M4765 3379 c-4 -6 -4 -13 -1 -16 3 -4 6 -1 6 6 0 7 5 9 12 5 7 -4 8
-3 4 4 -9 15 -13 15 -21 1z"/>
<path d="M4767 3319 c7 -7 15 -10 18 -7 3 3 -2 9 -12 12 -14 6 -15 5 -6 -5z"/>
<path d="M4810 3300 c0 -5 5 -10 11 -10 5 0 7 5 4 10 -3 6 -8 10 -11 10 -2 0
-4 -4 -4 -10z"/>
<path d="M4795 3240 c-2 -3 5 -7 16 -7 10 -1 19 2 19 6 0 9 -29 10 -35 1z"/>
<path d="M4826 3165 c-11 -8 -15 -15 -9 -15 6 0 16 7 23 15 16 19 11 19 -14 0z"/>
<path d="M4853 3135 c0 -8 4 -12 9 -9 5 3 6 10 3 15 -9 13 -12 11 -12 -6z"/>
<path d="M4831 3103 c0 -5 4 -17 9 -28 8 -17 8 -16 7 8 -1 15 -5 27 -9 27 -4
0 -8 -3 -7 -7z"/>
<path d="M4847 3023 c18 -28 28 -31 14 -4 -6 10 -8 20 -6 23 3 3 -1 5 -9 5
-12 0 -12 -4 1 -24z"/>
<path d="M4855 2980 c-3 -5 -1 -10 4 -10 6 0 11 5 11 10 0 6 -2 10 -4 10 -3 0
-8 -4 -11 -10z"/>
<path d="M4888 2963 c6 -2 9 -10 6 -15 -4 -7 -2 -8 5 -4 13 9 5 26 -12 25 -9
0 -8 -2 1 -6z"/>
<path d="M4893 2913 c0 -9 4 -10 14 -2 7 6 13 12 13 14 0 1 -6 2 -13 2 -8 0
-14 -6 -14 -14z"/>
<path d="M4870 2901 c0 -6 4 -13 10 -16 6 -3 7 1 4 9 -7 18 -14 21 -14 7z"/>
<path d="M4879 2863 c-6 -32 -5 -53 1 -53 4 0 7 14 7 30 0 27 -5 41 -8 23z"/>
<path d="M4900 2839 c0 -5 5 -7 10 -4 6 3 10 8 10 11 0 2 -4 4 -10 4 -5 0 -10
-5 -10 -11z"/>
<path d="M4900 2805 c0 -2 6 -8 13 -14 10 -8 14 -7 14 2 0 8 -6 14 -14 14 -7
0 -13 -1 -13 -2z"/>
<path d="M4897 2765 c-4 -8 -3 -16 1 -19 4 -3 9 4 9 15 2 23 -3 25 -10 4z"/>
<path d="M4885 2728 c8 -21 14 -22 35 -7 13 9 13 10 -1 6 -9 -3 -22 0 -28 6
-9 9 -11 8 -6 -5z"/>
<path d="M4910 2645 c-9 -11 -9 -15 -1 -15 7 0 10 -4 7 -8 -3 -5 1 -9 9 -9 11
0 12 4 4 13 -6 7 -8 18 -4 24 9 15 -1 12 -15 -5z"/>
<path d="M4900 2566 c0 -2 7 -7 16 -10 8 -3 12 -2 9 4 -6 10 -25 14 -25 6z"/>
<path d="M4890 2535 c-11 -13 -10 -14 4 -9 9 3 16 10 16 15 0 13 -6 11 -20 -6z"/>
<path d="M4908 2513 c7 -3 16 -2 19 1 4 3 -2 6 -13 5 -11 0 -14 -3 -6 -6z"/>
<path d="M4931 2444 c0 -11 3 -14 6 -6 3 7 2 16 -1 19 -3 4 -6 -2 -5 -13z"/>
<path d="M4884 2362 c0 -10 6 -19 13 -19 8 0 9 6 2 19 -5 10 -11 18 -12 18 -2
0 -3 -8 -3 -18z"/>
<path d="M4910 2371 c0 -6 4 -13 10 -16 6 -3 7 1 4 9 -7 18 -14 21 -14 7z"/>
<path d="M4888 2283 c5 -21 7 -23 10 -9 2 10 0 22 -6 28 -6 6 -7 0 -4 -19z"/>
<path d="M4910 2266 c0 -2 9 -6 20 -9 11 -3 18 -1 14 4 -5 9 -34 13 -34 5z"/>
<path d="M4870 2240 c0 -5 5 -10 10 -10 6 0 10 5 10 10 0 6 -4 10 -10 10 -5 0
-10 -4 -10 -10z"/>
<path d="M4900 2246 c0 -2 7 -7 16 -10 8 -3 12 -2 9 4 -6 10 -25 14 -25 6z"/>
<path d="M4895 2179 c-4 -6 -5 -12 -2 -15 2 -3 7 2 10 11 7 17 1 20 -8 4z"/>
<path d="M4922 2178 c-15 -15 -15 -28 0 -28 6 0 8 3 5 7 -4 3 -2 12 4 20 14
16 7 17 -9 1z"/>
<path d="M4896 2053 c-6 -14 -5 -15 5 -6 7 7 10 15 7 18 -3 3 -9 -2 -12 -12z"/>
<path d="M4846 1999 c2 -4 -6 -15 -18 -23 -12 -9 -18 -19 -14 -23 10 -11 56
-11 49 -1 -2 5 -14 6 -26 2 -18 -5 -20 -4 -9 7 7 8 17 14 23 14 5 0 9 4 8 9 0
5 5 12 13 17 9 6 6 8 -9 6 -12 0 -20 -4 -17 -8z"/>
<path d="M4800 1910 c-6 -11 -8 -20 -4 -20 3 0 1 -6 -5 -14 -6 -8 -11 -18 -9
-22 1 -5 -4 -20 -11 -33 -7 -13 -9 -21 -3 -17 5 3 13 -1 16 -10 4 -11 2 -15
-8 -11 -10 4 -13 1 -9 -9 3 -9 -3 -21 -14 -29 -29 -20 -33 -48 -12 -74 18 -22
20 -21 23 17 1 7 8 17 16 22 8 5 11 12 6 17 -4 4 -12 0 -17 -10 -6 -9 -14 -15
-20 -12 -14 9 -11 27 4 19 6 -4 9 -4 5 0 -7 9 33 52 45 48 5 -1 1 8 -7 20 -20
28 -21 44 -1 28 11 -9 15 -9 15 -1 0 7 4 10 8 7 12 -7 8 34 -4 42 -5 4 -9 13
-8 20 1 6 2 17 3 23 0 5 6 7 11 4 6 -3 10 -1 10 4 0 18 -19 12 -30 -9z m13
-66 c-7 -20 -18 -17 -20 5 -1 13 3 18 12 15 8 -3 11 -12 8 -20z m-58 -155 c11
-17 -1 -21 -15 -4 -8 9 -8 15 -2 15 6 0 14 -5 17 -11z"/>
<path d="M4830 1900 c-12 -7 -10 -9 7 -7 12 0 19 5 17 9 -6 10 -6 10 -24 -2z"/>
<path d="M4879 1873 c-13 -16 -12 -17 4 -4 9 7 17 15 17 17 0 8 -8 3 -21 -13z"/>
<path d="M4790 1749 c0 -5 5 -7 10 -4 6 3 10 8 10 11 0 2 -4 4 -10 4 -5 0 -10
-5 -10 -11z"/>
<path d="M4810 1699 c0 -5 5 -7 10 -4 6 3 10 8 10 11 0 2 -4 4 -10 4 -5 0 -10
-5 -10 -11z"/>
<path d="M4771 1644 c0 -11 3 -14 6 -6 3 7 2 16 -1 19 -3 4 -6 -2 -5 -13z"/>
<path d="M4750 1599 c0 -5 5 -7 10 -4 6 3 10 8 10 11 0 2 -4 4 -10 4 -5 0 -10
-5 -10 -11z"/>
<path d="M4705 1520 c3 -5 8 -10 11 -10 2 0 4 5 4 10 0 6 -5 10 -11 10 -5 0
-7 -4 -4 -10z"/>
<path d="M4670 1419 c0 -5 5 -7 10 -4 6 3 10 8 10 11 0 2 -4 4 -10 4 -5 0 -10
-5 -10 -11z"/>
<path d="M4576 1393 c-6 -14 -5 -15 5 -6 7 7 10 15 7 18 -3 3 -9 -2 -12 -12z"/>
<path d="M4529 1318 c-1 -7 -1 -16 0 -20 0 -5 -4 -8 -10 -8 -5 0 -8 -4 -4 -9
3 -5 1 -12 -4 -16 -6 -3 -8 -12 -5 -19 3 -8 1 -17 -5 -21 -6 -3 -11 0 -11 7
-1 7 -14 -3 -30 -22 -19 -22 -26 -38 -20 -44 6 -6 4 -13 -5 -20 -9 -7 -11 -16
-6 -25 7 -11 13 -10 33 3 14 9 28 13 33 9 4 -5 5 -2 1 5 -6 11 -12 10 -31 -2
-13 -9 -26 -12 -29 -7 -3 4 7 14 22 20 23 11 24 14 10 22 -21 11 -13 40 9 32
12 -5 12 -7 1 -14 -23 -15 6 -9 32 7 l25 15 -25 -6 c-24 -6 -23 -4 9 26 30 27
31 30 10 24 -21 -7 -22 -6 -11 8 13 16 26 67 17 67 -3 0 -6 -6 -6 -12z"/>
<path d="M4590 1321 c0 -6 4 -13 10 -16 6 -3 7 1 4 9 -7 18 -14 21 -14 7z"/>
<path d="M4560 1300 c20 -13 33 -13 25 0 -3 6 -14 10 -23 10 -15 0 -15 -2 -2
-10z"/>
<path d="M4540 1280 c0 -5 5 -10 10 -10 6 0 10 5 10 10 0 6 -4 10 -10 10 -5 0
-10 -4 -10 -10z"/>
<path d="M4606 1278 c3 -5 10 -6 15 -3 13 9 11 12 -6 12 -8 0 -12 -4 -9 -9z"/>
<path d="M4557 1235 c-8 -8 -18 -11 -22 -7 -5 4 -5 1 -1 -6 6 -11 12 -10 27 4
10 9 19 19 19 21 0 7 -9 2 -23 -12z"/>
<path d="M4523 1182 c-7 -4 -11 -17 -10 -29 0 -12 5 -19 9 -17 5 3 6 10 2 15
-3 5 0 16 6 24 14 17 11 19 -7 7z"/>
<path d="M4455 1100 c-3 -6 1 -7 9 -4 18 7 21 14 7 14 -6 0 -13 -4 -16 -10z"/>
<path d="M4426 1085 c-9 -26 -7 -32 5 -12 6 10 9 21 6 23 -2 3 -7 -2 -11 -11z"/>
<path d="M4393 1015 c0 -8 4 -12 9 -9 4 3 8 9 8 15 0 5 -4 9 -8 9 -5 0 -9 -7
-9 -15z"/>
<path d="M4426 1018 c3 -5 10 -6 15 -3 13 9 11 12 -6 12 -8 0 -12 -4 -9 -9z"/>
<path d="M4302 920 c0 -14 2 -19 5 -12 2 6 2 18 0 25 -3 6 -5 1 -5 -13z"/>
<path d="M4326 923 c-6 -14 -5 -15 5 -6 7 7 10 15 7 18 -3 3 -9 -2 -12 -12z"/>
<path d="M4105 820 c-3 -6 1 -7 9 -4 18 7 21 14 7 14 -6 0 -13 -4 -16 -10z"/>
<path d="M4215 821 c-3 -5 -2 -12 3 -15 5 -3 9 1 9 9 0 17 -3 19 -12 6z"/>
<path d="M1014 802 c4 -3 14 -7 22 -8 9 -1 13 0 10 4 -4 3 -14 7 -22 8 -9 1
-13 0 -10 -4z"/>
<path d="M4027 751 c-10 -14 -10 -14 4 -4 9 7 18 10 21 7 3 -3 8 -1 12 4 9 16
-24 9 -37 -7z"/>
<path d="M3952 684 c-11 -7 -22 -10 -26 -6 -4 3 -4 -2 0 -12 5 -14 4 -17 -4
-12 -7 4 -15 0 -18 -9 -6 -14 -9 -14 -16 -3 -7 9 -8 8 -4 -6 4 -10 1 -26 -6
-34 -8 -10 -9 -13 -1 -9 6 4 13 2 15 -5 6 -16 35 -18 35 -2 0 10 -4 11 -12 4
-9 -8 -12 -4 -12 15 0 13 3 22 8 19 5 -3 14 6 20 20 7 14 17 22 25 19 9 -3 14
2 14 13 0 17 1 16 16 -2 8 -10 13 -14 10 -7 -4 6 2 13 11 15 13 3 10 6 -9 10
-16 3 -36 -1 -46 -8z"/>
<path d="M4034 675 c3 -23 12 -26 13 -5 1 11 -2 20 -7 20 -4 0 -7 -7 -6 -15z"/>
<path d="M3941 628 c-7 -11 -7 -18 -1 -18 5 0 10 4 10 8 0 5 10 14 23 20 22
10 22 10 1 9 -12 -1 -27 -9 -33 -19z"/>
<path d="M3992 634 c-7 -8 -8 -14 -3 -14 10 0 25 19 20 25 -2 1 -10 -3 -17
-11z"/>
<path d="M3996 587 c3 -10 9 -15 12 -12 3 3 0 11 -7 18 -10 9 -11 8 -5 -6z"/>
<path d="M3871 547 c-13 -21 -12 -21 5 -5 10 10 16 20 13 22 -3 3 -11 -5 -18
-17z"/>
<path d="M3832 551 c-11 -7 -11 -9 0 -14 9 -3 15 1 15 9 0 8 -1 14 -1 14 -1 0
-7 -4 -14 -9z"/>
<path d="M3799 533 c0 -5 -2 -16 -4 -25 -2 -10 0 -20 4 -22 3 -2 7 9 7 25 1
16 0 29 -2 29 -2 0 -4 -3 -5 -7z"/>
<path d="M1346 518 c3 -5 10 -6 15 -3 13 9 11 12 -6 12 -8 0 -12 -4 -9 -9z"/>
<path d="M3870 516 c0 -2 8 -10 18 -17 15 -13 16 -12 3 4 -13 16 -21 21 -21
13z"/>
<path d="M1436 487 c3 -10 9 -15 12 -12 3 3 0 11 -7 18 -10 9 -11 8 -5 -6z"/>
<path d="M3645 490 c-4 -7 -2 -17 4 -23 9 -9 11 -8 6 6 -4 9 -3 17 3 17 6 0
13 -7 15 -15 4 -12 5 -11 3 1 -1 21 -21 29 -31 14z"/>
<path d="M1466 479 c2 -4 13 -7 24 -6 23 2 17 10 -10 12 -10 1 -17 -2 -14 -6z"/>
<path d="M3628 443 c7 -3 16 -2 19 1 4 3 -2 6 -13 5 -11 0 -14 -3 -6 -6z"/>
<path d="M3672 434 c-7 -8 -8 -14 -3 -14 10 0 25 19 20 25 -2 1 -10 -3 -17
-11z"/>
<path d="M3611 404 c0 -11 3 -14 6 -6 3 7 2 16 -1 19 -3 4 -6 -2 -5 -13z"/>
<path d="M3451 393 c-9 -15 -12 -15 -20 -4 -5 8 -11 9 -15 3 -7 -12 19 -23 37
-16 8 3 14 11 14 19 0 19 -4 19 -16 -2z"/>
<path d="M3510 391 c0 -6 5 -13 12 -17 6 -4 8 -3 4 4 -3 5 0 13 6 15 8 3 6 6
-4 6 -10 1 -18 -3 -18 -8z"/>
<path d="M1596 378 c3 -4 11 -5 19 -1 21 7 19 12 -4 10 -11 0 -18 -5 -15 -9z"/>
<path d="M3360 365 c-7 -9 -19 -14 -26 -11 -18 7 -29 -13 -15 -27 9 -9 10 -7
5 7 -5 13 -4 17 3 13 15 -9 40 1 47 19 7 18 2 18 -14 -1z"/>
<path d="M1713 355 c0 -8 4 -12 9 -9 4 3 8 9 8 15 0 5 -4 9 -8 9 -5 0 -9 -7
-9 -15z"/>
<path d="M3382 350 c-7 -12 -8 -20 -2 -20 5 0 10 5 10 11 0 5 5 7 12 3 7 -4 8
-3 4 4 -4 7 -3 12 3 12 5 0 12 -5 14 -10 3 -6 4 -5 3 2 -4 21 -30 20 -44 -2z"/>
<path d="M3270 330 c-12 -12 -18 -25 -15 -30 8 -13 35 -13 35 1 0 5 5 7 11 3
8 -5 8 -1 0 13 -6 11 -7 23 -4 27 3 3 3 6 0 6 -4 0 -16 -9 -27 -20z m18 -12
c-2 -6 -10 -14 -16 -16 -7 -2 -10 2 -6 12 7 18 28 22 22 4z"/>
<path d="M1753 325 c0 -8 4 -12 9 -9 5 3 6 10 3 15 -9 13 -12 11 -12 -6z"/>
<path d="M1816 318 c3 -5 10 -6 15 -3 13 9 11 12 -6 12 -8 0 -12 -4 -9 -9z"/>
<path d="M3337 316 c-4 -11 -1 -13 10 -9 12 5 14 3 8 -7 -5 -8 -4 -11 3 -6 12
7 5 36 -8 36 -4 0 -10 -7 -13 -14z"/>
<path d="M3391 307 c-13 -21 -12 -21 5 -5 10 10 16 20 13 22 -3 3 -11 -5 -18
-17z"/>
<path d="M1868 303 c6 -2 18 -2 25 0 6 3 1 5 -13 5 -14 0 -19 -2 -12 -5z"/>
<path d="M3100 280 c-10 -19 4 -40 17 -26 4 3 1 6 -5 6 -6 0 -9 7 -6 15 4 8
10 15 16 15 5 0 6 -5 2 -11 -4 -8 -1 -8 12 -1 11 5 26 7 34 4 8 -2 12 -2 9 2
-4 4 -21 9 -38 11 -23 3 -33 -1 -41 -15z"/>
<path d="M1994 261 c0 -16 3 -27 6 -25 7 8 7 54 0 54 -4 0 -7 -13 -6 -29z"/>
<path d="M3190 280 c0 -6 4 -9 9 -6 5 4 12 1 14 -4 3 -6 4 -5 3 2 -3 15 -26
23 -26 8z"/>
<path d="M3235 280 c-3 -5 -1 -10 4 -10 6 0 11 5 11 10 0 6 -2 10 -4 10 -3 0
-8 -4 -11 -10z"/>
<path d="M3301 276 c-9 -11 -9 -16 0 -22 7 -4 9 -3 5 4 -3 6 2 15 11 21 10 6
13 11 7 11 -6 0 -17 -6 -23 -14z"/>
<path d="M2075 270 c3 -5 8 -10 11 -10 2 0 4 5 4 10 0 6 -5 10 -11 10 -5 0 -7
-4 -4 -10z"/>
<path d="M2971 250 c14 -31 19 -36 19 -24 0 6 -7 19 -16 30 -14 18 -14 18 -3
-6z"/>
<path d="M2990 261 c0 -5 5 -13 10 -16 6 -3 10 -2 10 4 0 5 -4 13 -10 16 -5 3
-10 2 -10 -4z"/>
<path d="M3135 260 c-3 -6 1 -7 9 -4 18 7 21 14 7 14 -6 0 -13 -4 -16 -10z"/>
<path d="M2037 253 c-10 -9 -9 -23 1 -23 5 0 9 7 9 15 0 17 -1 18 -10 8z"/>
<path d="M2260 240 c0 -5 5 -10 10 -10 6 0 10 5 10 10 0 6 -4 10 -10 10 -5 0
-10 -4 -10 -10z"/>
<path d="M2890 246 c0 -2 7 -9 15 -16 13 -11 14 -10 9 4 -5 14 -24 23 -24 12z"/>
<path d="M2926 235 c4 -8 8 -15 10 -15 2 0 4 7 4 15 0 8 -4 15 -10 15 -5 0 -7
-7 -4 -15z"/>
<path d="M3070 239 c0 -5 5 -7 10 -4 6 3 10 8 10 11 0 2 -4 4 -10 4 -5 0 -10
-5 -10 -11z"/>
<path d="M2330 235 c0 -7 30 -13 34 -7 3 4 -4 9 -15 9 -10 1 -19 0 -19 -2z"/>
<path d="M2440 219 c-7 -11 -10 -23 -7 -25 2 -2 9 7 15 21 14 30 7 33 -8 4z"/>
<path d="M2480 230 c-9 -6 -10 -10 -3 -10 6 0 15 5 18 10 8 12 4 12 -15 0z"/>
<path d="M2575 230 c-7 -11 22 -26 32 -16 4 3 -1 6 -11 6 -9 0 -14 5 -11 10 3
6 4 10 1 10 -3 0 -8 -5 -11 -10z"/>
<path d="M2795 230 c-3 -6 -1 -18 5 -27 9 -15 10 -14 4 7 -6 22 -5 23 10 11 9
-7 16 -9 16 -3 0 14 -28 23 -35 12z"/>
<path d="M3015 230 c-3 -6 1 -7 9 -4 18 7 21 14 7 14 -6 0 -13 -4 -16 -10z"/>
<path d="M2096 222 c-3 -5 1 -9 9 -9 8 0 12 4 9 9 -3 4 -7 8 -9 8 -2 0 -6 -4
-9 -8z"/>
<path d="M2233 210 c-1 -11 1 -22 5 -24 4 -2 8 7 8 20 1 13 -1 24 -5 24 -4 0
-7 -9 -8 -20z"/>
<path d="M2375 221 c-3 -5 0 -13 6 -17 7 -4 9 -3 5 4 -3 5 0 13 6 15 9 4 10 6
1 6 -6 1 -14 -3 -18 -8z"/>
<path d="M2952 218 c2 -6 10 -13 16 -14 7 -1 8 0 2 3 -5 2 -8 9 -4 14 3 5 0 9
-6 9 -7 0 -10 -5 -8 -12z"/>
<path d="M3150 226 c0 -2 7 -7 16 -10 8 -3 12 -2 9 4 -6 10 -25 14 -25 6z"/>
<path d="M2317 213 c-10 -9 -9 -23 1 -23 5 0 9 7 9 15 0 17 -1 18 -10 8z"/>
<path d="M2527 207 c-3 -8 1 -14 8 -14 7 0 11 6 8 14 -6 16 -10 16 -16 0z"/>
<path d="M2274 188 l-19 -23 23 19 c21 18 27 26 19 26 -2 0 -12 -10 -23 -22z"/>
<path d="M2346 202 c-3 -5 1 -9 9 -9 8 0 12 4 9 9 -3 4 -7 8 -9 8 -2 0 -6 -4
-9 -8z"/>
<path d="M2468 203 c6 -2 18 -2 25 0 6 3 1 5 -13 5 -14 0 -19 -2 -12 -5z"/>
<path d="M2710 206 c0 -2 7 -7 16 -10 8 -3 12 -2 9 4 -6 10 -25 14 -25 6z"/>
<path d="M2923 199 c9 -6 14 -15 11 -21 -4 -7 -2 -8 5 -4 14 9 -3 36 -23 36
-6 0 -3 -5 7 -11z"/>
<path d="M3116 198 c3 -5 10 -6 15 -3 13 9 11 12 -6 12 -8 0 -12 -4 -9 -9z"/>
<path d="M2456 178 c3 -4 11 -5 19 -1 21 7 19 12 -4 10 -11 0 -18 -5 -15 -9z"/>
<path d="M2830 179 c0 -5 5 -7 10 -4 6 3 10 8 10 11 0 2 -4 4 -10 4 -5 0 -10
-5 -10 -11z"/>
</g>
</svg>
